<svg id="Layer_1" data-name="Layer 1" xmlns="http://www.w3.org/2000/svg" viewBox="0 0 562.06802 704.60494">
  <title>naruto-anime-001</title>
  <g>
    <path d="M263.55068,115.629a86.69944,86.69944,0,0,1,24.23592,1.9488,41.25522,41.25522,0,0,1,11.31158,4.07306c2.84859,1.54653,5.79547,2.93248,8.77489,4.21236,3.56316,1.53065,5.64607.61318,6.767-3.49342,2.82687-10.35637,3.67043-21.01316,5.37308-31.53888,1.38232-8.54541,2.37806-17.16993,4.99162-25.47309a29.8,29.8,0,0,1,3.86759-8.40235c2.93733-4.15748,4.50913-4.4112,8.76273-1.612,12.734,8.37977,24.10183,18.38859,34.82166,29.16977,7.533,7.57611,15.01626,15.202,22.58291,22.74421,3.64926,3.63749,4.95722,3.514,8.21-.347,9.27667-11.01131,20.75682-19.42132,32.474-27.56393,14.351-9.97294,29.40923-18.91581,43.18281-29.73249,3.67737-2.88791,6.66365-1.86339,7.13347,2.776,1.105,10.91264,1.8123,21.86646,2.62043,32.808,1.18422,16.03344,2.19987,32.08044,3.53718,48.10081.42864,5.13513,1.90784,5.75821,6.18056,2.99832,11.04612-7.13515,21.98569-14.43518,32.97619-21.65658a22.92568,22.92568,0,0,1,3.58239-2.131c4.25306-1.785,7.10437.16817,6.72167,4.7617-.85552,10.27108-4.02657,19.94877-7.95428,29.40239-2.37366,5.7132-4.76287,11.42069-7.22448,17.09633-1.51893,3.50219-.29194,4.94405,3.33308,4.90643a271.56969,271.56969,0,0,1,46.6692,3.68548c8.20867,1.34188,16.45473,3.07426,23.90515,7.15291,6.17313,3.37936,6.94686,6.36609,3.25585,12.34113-8.32325,13.47373-19.12334,25.07072-28.63541,37.64451-5.15918,6.81975-5.05232,8.41291,2.872,11.68308,21.15425,8.72978,42.36521,17.32225,63.5528,25.97128a30.07711,30.07711,0,0,1,3.41461,1.44917c3.9783,2.23518,4.19878,5.41116.24685,7.73108-7.46875,4.3844-15.12252,8.45281-22.68049,12.68633-8.23091,4.61043-16.46142,9.22265-24.64055,13.92386-1.54117.88587-3.75391,1.536-3.76378,3.72621-.01038,2.30194,2.36725,2.66413,3.91,3.49061,11.86344,6.35478,23.78684,12.59747,35.66151,18.93137,1.98586,1.05924,4.75192,1.88172,4.42475,4.73454-.33352,2.90846-3.15216,3.67828-5.50773,4.25927-7.80425,1.92483-15.61735,3.869-23.51338,5.34335a46.01542,46.01542,0,0,0-10.9854,3.57383c-7.84884,3.64563-10.43742,9.12917-8.48287,17.88623a102.26325,102.26325,0,0,0,3.6782,11.96718c2.04,5.72236.79472,7.56892-5.40694,7.76151-4.019.12479-8.03227.4194-12.04994.59821a6.89429,6.89429,0,0,0-5.01857,2.01885c-1.6191,1.70226-3.82226,3.69379-3.21705,5.84063.72393,2.56779,3.75165,1.26391,5.74369,1.31408,10.464.26356,20.70138,1.58348,30.08038,6.57332,11.25114,5.98586,16.49824,16.769,21.53,27.65394,2.7858,6.02639,5.64568,12.02442,8.21032,18.145,1.72036,4.10573,4.65488,5.93422,8.93516,6.11539,14.28385.60447,25.7288,7.0848,35.37065,17.22341,1.10589,1.16292,3.02272,2.12066,1.98416,4.21662a5.58585,5.58585,0,0,1-4.41143,3.04572,6.42579,6.42579,0,0,1-2.768.02819c-11.0466-3.57581-19.01728,2.69618-27.12777,8.43624a118.46244,118.46244,0,0,1-15.25043,9.69811c-7.34691,3.67332-14.681,4.68329-22.139.30187a44.0281,44.0281,0,0,0-5.002-2.44485c-1.09682-.46931-2.30589-1.22676-3.471-.19132-1.13187,1.00573-.65587,2.26749-.344,3.46424,2.07009,7.94362,1.54315,15.95207.65887,23.98117a45.25719,45.25719,0,0,0,1.561,18.37632c1.45949,4.76316,1.56607,9.217-.67663,13.93155-5.35628,11.2601-9.23493,22.85973-8.03652,35.73746a21.51264,21.51264,0,0,1-5.23479,16.41213c-4.51217,5.18885-6.61731,11.12477-5.54449,17.96374,1.42705,9.09591-1.394,16.29546-8.95325,21.67988-8.08763,5.7607-11.42,14.36365-13.45708,23.571-1.019,4.60627-3.75074,7.73511-7.4924,10.14831-9.244,5.962-17.02393,13.26508-22.0611,23.22638a13.9342,13.9342,0,0,1-4.74469,5.03121c-16.992,11.65358-34.189,22.96881-53.55,30.43546-4.4397,1.71213-8.92532,3.60185-13.92778,2.632-2.39522-.46443-3.74308,1.29432-4.979,2.81938a9.32956,9.32956,0,0,1-8.55669,3.53917c-18.81339-1.23851-37.32534,1.09154-55.805,4.46014a142.17848,142.17848,0,0,1-29.13808,1.93816,17.20139,17.20139,0,0,1-10.37383-3.41455c-6.89779-5.235-14.98287-7.42212-23.42691-7.70232-20.63842-.68485-37.46058-9.41928-51.92817-23.56852a260.91322,260.91322,0,0,1-25.38194-28.32027c-1.65229-2.16964-3.8675-3.53486-6.0364-4.996-4.10811-2.76776-8.08124-5.81539-12.44918-8.09881-6.12891-3.20383-9.10794-8.101-9.54991-14.773-.247-3.72851-2.23685-6.29746-5.113-8.41287-4.48765-3.30066-8.74476-6.95775-13.44546-9.91372-4.61843-2.9044-6.66369-6.98741-6.36446-12.03207.54751-9.23045-3.9195-15.94316-9.99308-22.05786-5.56381-5.60149-11.18688-11.13384-15.08155-18.15642a13.91987,13.91987,0,0,1-1.74412-9.78325c.63266-3.33872.88618-6.74749,1.38076-10.11456.86725-5.90444-.54258-10.94576-4.979-15.19235a49.17857,49.17857,0,0,1-5.46846-6.90057,12.80132,12.80132,0,0,1-1.76583-12.74438c1.22106-3.17513,2.19551-6.51589,3.899-9.41956,3.24021-5.52293,2.86085-10.85794.013-16.2161-2.16536-4.07422-2.247-8.3258-1.45213-12.66077,2.314-12.62038,4.70833-25.22608,7.081-37.83571,1.22175-6.493,6.71766-9.00643,11.54926-11.87615,7.56992-4.49614,15.76433-7.90638,22.98668-13.03468,4.93444-3.50369,8.43884-7.65175,7.417-14.333-.44078-2.88194-1.33719-4.25686-4.497-3.41407-3.73409.996-7.51409,1.86394-11.3174,2.54661-6.754,1.21224-10.27853-2.02832-10.21534-8.89185.04631-5.02969,2.69313-9.50918,2.68049-14.55886-.01669-6.668-1.06875-7.61325-7.23442-5.49188-5.7705,1.98544-11.79672,2.54227-17.784,3.13594-5.01154.497-6.545-2.186-4.757-7.00448,2.70681-7.29487,7.7419-12.98735,12.574-18.81464,4.25246-5.12835,8.37584-10.27679,11.21387-16.40391,1.55665-3.3607.98988-5.36953-2.18271-7.23463-13.59936-7.99475-27.10778-16.144-40.6692-24.20354-4.91571-2.92139-9.90714-5.71527-14.827-8.6298-5.123-3.03486-5.43676-5.81145-.82533-9.63371,7.3414-6.08509,15.93176-10.08711,24.56646-13.89054q19.10242-8.41419,38.85142-15.22791c5.68948-1.96774,6.20647-3.81826,2.11809-8.03082a425.992,425.992,0,0,1-30.69084-35.41836,91.64353,91.64353,0,0,1-10.1736-15.49816c-2.20782-4.47649-1.247-6.57756,3.18337-8.92384,4.96424-2.629,10.34648-3.15188,15.73694-3.35262a230.28614,230.28614,0,0,1,39.327,2.31489c1.78691.24054,3.86,1.07282,5.11-.89459,1.08364-1.70558-.30457-3.26957-1.00358-4.749-6.40408-13.55433-13.91306-26.61054-18.46286-40.99739-.604-1.90978-.93958-3.90318-1.50959-5.82518-1.94121-6.54546-2.56939-7.81925,6.582-9.76692,8.82912-1.87907,17.4914.12842,26.05653,2.52416,12.07861,3.37851,23.40221,8.89259,35.455,12.31532,1.27325.36157,2.74641,1.4437,3.9079.18506,1.30569-1.4149.12131-2.84574-.503-4.24843-3.60434-8.09862-9.59884-14.32926-15.78811-20.429-2.64462-2.60639-5.28488-5.23576-7.70793-8.04383-3.1679-3.67125-2.15154-6.11259,2.51486-7.03429A99.91443,99.91443,0,0,1,263.55068,115.629Zm231.492,124.53863c-2.80869-.24461-4.23032,1.00757-5.78085,1.86735-1.8434,1.02219-3.78993,1.81907-5.52885.01619-1.71318-1.77616-.311-3.435.57035-5.04024,6.60583-12.03059,17.16678-19.71508,28.90827-25.98526,17.15753-9.16251,35.68831-14.72978,54.19617-20.33409,1.39415-.42218,3.46232-.29466,3.70735-2.19528.24345-1.88859-1.63351-2.41291-3.00837-3.06022a41.19955,41.19955,0,0,0-22.99479-3.93533c-9.94485,1.21451-19.27135,4.4516-28.36272,8.42553-9.92069,4.33641-19.70737,8.97936-29.627,13.31814-5.44579,2.38192-8.55694-.08779-7.68026-5.93761a43.91447,43.91447,0,0,1,1.622-6.74408,111.00245,111.00245,0,0,1,19.71137-36.01054c.79007-.98439,2.43506-2.19111,1.136-3.53982-1.03264-1.07208-2.26048.30286-3.23316.94184a72.45458,72.45458,0,0,0-22.97388,23.84561c-4.80459,8.11943-9.51533,16.29539-14.40554,24.36273-2.30514,3.80282-3.99637,3.77652-6.20384-.11136a57.71441,57.71441,0,0,1-5.94082-16.51962c-4.50973-20.90927.7693-40.86342,5.99247-60.7855,3.369-12.85017,7.99631-25.37546,9.90364-38.598.18219-1.26312,1.36669-2.86527-.33318-3.78278-1.73073-.93415-2.849.66366-3.97893,1.61971-6.26121,5.29771-12.53737,10.57982-18.70829,15.98163-9.67448,8.4687-18.94523,17.25975-26.556,27.7931-7.57519,10.48411-8.87047,22.92152-12.18139,34.75054-2.3733,8.47909-4.43148,17.04618-6.65617,25.56725-.35745,1.36911-.86817,2.81673-2.49836,3.02238-1.9066.24053-2.77273-1.2832-3.32337-2.70942-1.11131-2.87862-1.937-5.86659-3.01243-8.76043-.45927-1.23578-.79-3.09231-2.56553-2.84038-4.03349.57233-4.88167-2.37251-6.12732-5.03272-3.83551-8.191-5.198-17.14579-7.96307-25.66689-6.80855-20.982-14.825-41.37906-28.66065-58.93738-1.18814-1.50781-2.21173-3.92209-4.62147-3.12614-2.49082.82272-1.57954,3.38824-1.69017,5.28413-.92873,15.91435-2.20169,31.79737-5.3541,47.44783a54.26069,54.26069,0,0,1-4.6405,14.04918c-1.13995,2.23438-2.66362,3.2546-5.21811,2.70238a122.712,122.712,0,0,1-19.60661-5.59109,250.60935,250.60935,0,0,1-29.06208-13.36705c-1.23323-.68467-2.87584-1.53487-3.8247-.30231-1.16442,1.51261.75905,2.44179,1.64779,3.28517a54.259,54.259,0,0,1,13.88711,20.50442c5.79692,15.326,12.36136,30.36116,18.551,45.54.60147,1.47494,1.89747,3.23818.02414,4.634-1.50226,1.11936-2.87874-.09-4.26894-.76552a41.02581,41.02581,0,0,1-9.67144-7.11425c-6.57644-6.03865-12.04024-13.33483-20.24088-17.55487-17.2965-8.90079-35.57158-15.03977-54.4081-19.64693-1.29483-.3167-2.94715-1.2363-3.66636.51031-.66429,1.61325.927,2.456,2.10975,3.137,16.36978,9.42388,29.44239,22.54056,41.08182,37.14238,8.31836,10.43543,15.77133,21.44366,19.01494,34.73114.74589,3.05562.23944,5.22727-2.96623,6.188-2.07436.6216-2.82605,1.904-3.03642,4.0633-.40825,4.1903-1.15025,4.35516-4.8568,1.893-5.37346-3.5694-9.54367-8.44688-13.47923-13.34691-7.59291-9.45373-17.60578-13.86125-29.15662-15.387-15.70138-2.074-31.49618-1.34841-47.26659-1.11557-1.21251.01789-2.63956-.18568-3.26615,1.1967-.6016,1.32724.30858,2.39369,1.09046,3.33273a53.62406,53.62406,0,0,0,10.99535,9.93586c10.5954,7.251,21.401,14.20829,31.79817,21.73147,9.73945,7.04722,18.19731,15.41242,22.8598,26.87135,1.90981,4.69367.26492,6.98274-4.73546,6.3514a33.66354,33.66354,0,0,1-11.11217-3.18038c-11.74643-5.95259-23.52432-6.11748-35.892-1.40606-14.02209,5.34168-26.21414,13.88326-39.23668,20.96658-1.69477.92181-4.24608,1.65294-3.69148,4.13282.59887,2.67783,3.26275,1.78711,5.13245,1.80375,18.09294.16121,36.2128-.55646,54.15531,2.8347,12.51879,2.36612,24.76936,5.43595,36.04266,11.5821,1.73753.9473,3.753,2.0182,3.45342,4.46781-.28982,2.36966-2.271,3.08962-4.29088,3.64858-1.40795.38962-3.65277-.53593-4.0679,1.32869-.45386,2.03864,1.95352,2.44471,3.22461,3.4605,1.26008,1.007,2.36445,2.23461,1.90648,3.93392-.45757,1.69783-2.01337,2.28784-3.62385,2.42236-1.69429.14152-3.409.03034-5.10538.15672-8.18172.60941-16.34334,1.3828-24.17461,4.06336-12.79034,4.378-23.24417,11.52266-28.74281,24.468-.64779,1.52509-2.00328,3.273-.75541,4.73609,1.46984,1.72339,3.11534.00735,4.55987-.68487,5.57847-2.67327,11.085-5.50008,16.70258-8.0869,3.181-1.46482,6.35918-3.5732,10.13961-2.15954,3.56726,1.33391,5.74915-.20817,7.86818-2.96064,3.27118-4.249,6.13-8.93284,11.67046-10.92672,6.98248-2.51289,13.84867-5.35079,20.75-8.08619,2.71851-1.0775,5.26851-2.43586,8.34991-2.60372,4.62328-.2519,9.21833-.99452,13.83081-1.47657,14.13145-1.47676,28.111-4.57438,42.434-4.01111,6.95494.27348,13.87157,1.14261,20.8619.95719,10.57871-.28057,10.87315-.72864,5.76956-10.05225-1.17949-2.15481-4.02241-4.72421-1.44611-6.94507,2.21584-1.91008,4.4422,1.00141,6.48138,2.21365,6.90616,4.10562,12.61758,10.103,20.21712,13.08419,11.45239,4.49277,16.6344,2.29843,21.57242-6.41623,1.97908-3.49268,3.60582-7.1846,5.40458-10.78.99452-1.98785,2.16735-2.692,4.40658-1.32024,5.05912,3.09913,5.21772,3.03185,7.472-2.53305,4.58346-11.31509,8.91355-22.748,15.134-33.30546,1.52321-2.58517,3.13891-6.46359,6.35253-5.96887,3.31725.51072,2.68884,4.79509,3.17009,7.50882,1.87193,10.55568,1.49417,21.27381,1.95563,31.93488.2452,5.66456,1.7145,6.38016,6.403,3.45366,8.40288-5.24508,16.73263-10.60752,25.083-15.93644,1.94-1.238,4.13125-2.12707,6.02611-.54432,2.22851,1.86147.49217,3.97612-.4696,5.83506-2.243,4.33554-6.10072,7.37559-9.04057,11.14263-1.54,1.97339-5.13221,3.40347-4.11316,6.18342,1.14466,3.1225,4.84568,1.80646,7.49459,2.1558,4.315.56908,5.75114,3.20389,3.179,6.67587-1.97324,2.6636-1.40041,3.33277,1.586,3.524,19.2909,1.2351,38.57354,2.61022,57.873,3.686,2.37818.13252,6.10747,2.28838,7.11365-.64807,1.0372-3.027-3.24717-3.8285-5.16267-5.6345-1.434-1.352-3.58919-2.39562-2.472-4.87824.97691-2.17078,2.88673-2.24137,5.107-2.10645,8.7999.53462,17.61215.88955,26.42365,1.20282,11.60032.41248,23.20392.73619,34.80718,1.0572,1.16522.03224,2.80872.55686,3.268-.93718.45508-1.48022-1.22568-1.96376-2.168-2.62405-4.18307-2.93092-8.53737-5.62827-12.61709-8.69313-6.5024-4.88488-13.69758-7.31478-21.80433-8.22859-8.881-1.0011-17.85619-1.94766-26.41557-4.91587-2.28734-.79322-4.53009-1.62058-4.65731-4.46035-.13049-2.91291,1.8145-4.46659,4.25-5.46607a180.14748,180.14748,0,0,1,30.09814-9.31014c16.00589-3.48466,32.13022-6.42338,48.17877-9.71805,1.46868-.30153,3.88335-.04286,3.99923-2.36411.10244-2.05132-1.97247-2.65041-3.48091-3.27817-10.88949-4.53173-20.8121-10.942-31.40028-16.05688-15.11033-7.29941-30.7877-11.06311-47.66279-8.263-10.57981,1.75555-19.75938,7.05015-29.36728,11.26994-3.97377,1.74531-7.90122,3.64623-12.2492,4.19864-3.48781.44316-4.89557-1.36386-3.94322-4.7606.73246-2.61246,2.44714-4.56472,4.19469-6.57767C488.31477,246.84956,492.22552,244.48968,495.04272,240.16767Zm54.518,232.88758c.41548-10.0839-2.13963-19.52169-4.00978-29.071-.753-3.84461-2.851-4.9258-6.4991-4.86573-3.1086.05119-4.86627,1.68286-6.33405,3.96409-3.011,4.67969-5.85911,9.46723-8.97435,14.07508-.975,1.44225-2.11184,3.53106-4.27507,3.03739-2.239-.511-2.14995-2.83362-2.27372-4.62192-.21659-3.12987-1.73578-4.30241-4.59307-3.145-12.17232,4.93068-24.77824,8.79293-36.51919,14.78925-.82762.42269-1.87259.68735-1.65847,1.87722.1945,1.081,1.19787,1.31448,2.12543,1.46995a50.15418,50.15418,0,0,1,11.05128,3.44413c11.56321,4.8395,12.54091,11.43061,2.844,19.32045-5.78184,4.70439-7.31161,4.16679-8.70127-3.05766-1.1239-5.8429-4.4-8.13874-10.31828-7.23069-3.866.59307-4.70569,2.76651-3.59041,9.29318,1.45155,8.4941-4.05539,15.70567-12.68062,16.60578-8.77944.91621-15.32207-3.75772-18.44181-13.17438-1.58638-4.78834-2.73864-5.50314-7.36895-3.59816-5.571,2.29193-11.01371,4.90036-16.48,7.4405-3.81971,1.775-7.67014,3.39085-12.00485,2.90628-2.25361-.2519-4.343-1.179-5.13272-3.41932-.74367-2.1098,1.07087-3.387,2.37347-4.66281,3.14736-3.08262,7.0977-4.92663,10.94081-6.92729,5.21414-2.71428,10.50755-5.30115,15.0917-9.05779.8096-.66353,1.85772-1.38422,1.1739-2.68212-.50939-.96681-1.52932-.9271-2.46326-.883q-10.43.49212-20.859,1.00408c-17.13776.83306-34.22624,2.2238-51.42688.02178-9.2039-1.17827-18.18815-3.85789-27.51945-3.948-2.06638-.02-5.22311-1.14129-5.981.92818-.9288,2.5362,2.51751,3.31634,4.10037,4.82779a21.4703,21.4703,0,0,0,1.76771,1.505c10.59871,8.12354,19.71852,18.58552,33.84011,21.12781,2.37565.42768,2.67091,2.38847,1.70677,4.379-1.3258,2.73708-3.29442,4.16413-6.33784,2.41638-5.36423-3.08058-10.67812-6.24925-16.05788-9.30209-1.20252-.68241-2.62-2.50537-3.96047-.545-1.14542,1.67515.57243,2.80169,1.59242,3.89487,1.05509,1.13085,2.2326,2.14695,3.2989,3.268,1.04227,1.09585,2.61274,2.291.95626,3.86123-1.49191,1.4144-2.88027.19-4.04467-.8482-1.26956-1.13193-2.48138-2.33391-3.66081-3.56073-5.30745-5.52054-5.1638-5.43257-9.46485.85627-3.22646,4.71766-7.219,8.89812-13.6419,7.88746-7.17159-1.12847-10.94062-5.47183-12.33428-13.15254a55.52511,55.52511,0,0,0-1.25433-6.36842c-1.98456-6.47953-5.98379-7.8975-11.63025-4.1555a37.90643,37.90643,0,0,0-4.692,3.784c-2.91462,2.689-5.58288,2.41331-7.87531-.65893-2.18878-2.93328-1.40759-5.43644,1.456-7.545a41.81291,41.81291,0,0,1,24.65752-8.20051c1.00919-.01832,2.3387.64424,2.69219-.89364.23337-1.01525-.73817-1.62781-1.44869-2.20534a9.0707,9.0707,0,0,0-1.57466-.97819c-20.08022-10.35457-41.84208-15.979-63.29723-22.46013-1.18184-.357-2.76657-.517-3.45993.62932-2.5718,4.25218-4.78034,2.29743-7.26805-.07685-4.42825-4.22638-8.99394-2.94956-9.99565,3.11466a163.1535,163.1535,0,0,0-.98771,43.44835,14.91809,14.91809,0,0,0,2.57043,6.40705,116.92488,116.92488,0,0,0,28.56625,30.16869c2.32049,1.68008,5.01021,4.3964,7.77964,3.09289,2.61151-1.22915.83927-4.798,1.21912-7.30431.023-.15151-.0015-.30953.0065-.464.07151-1.3819-.12828-3.07587,1.52474-3.546,1.826-.51945,2.78308,1.01877,3.59967,2.33413a21.73963,21.73963,0,0,1,3.41191,10.02511c.21653,3.3626,1.91957,4.60417,4.91362,4.92419,3.22508.34469,6.44892.71582,9.65987,1.17032,1.17267.166,2.82369.10647,3.01249,1.629.21057,1.69829-1.49317,1.59432-2.61134,1.96374-11.52458,3.80672-11.89351,4.61313-7.466,16.14957.22129.57663.33915,1.19279.55824,1.77049,1.05514,2.78178,2.94377,4.32947,6.04921,3.89986,3.97932-.55036,7.94574-1.19619,11.92875-1.71643,1.47173-.19223,3.359-.85184,4.12917.96964.69733,1.649-1.10487,2.38223-2.10858,3.19068q-5.24033,4.22055-10.64744,8.23278c-1.8384,1.37316-2.26263,2.67338-.66412,4.6007,2.07183,2.49794,3.87583,5.21585,5.87441,7.7772,4.14995,5.31851,5.807,5.69327,11.66161,2.27764,3.47145-2.02534,6.72953-4.4141,10.17355-6.49014.99364-.599,2.43223-1.18423,3.42939-.02746,1.0311,1.19608.07223,2.29465-.6576,3.30452-2.08231,2.88126-4.29571,5.67834-6.217,8.66329-4.666,7.24935-4.57072,7.68361,1.4621,14.07545a21.27623,21.27623,0,0,0,1.65342,1.63c16.58638,14.10433,34.06742,26.77213,55.21968,33.24174,20.77642,6.35469,41.3791,4.80438,61.48432-2.69635,22.076-8.23591,40.32631-22.01544,55.43476-40.05212,2.5822-3.08268,2.83668-5.98226.49654-9.21678-3.08461-4.26338-6.10452-8.57356-9.17333-12.84852-.72813-1.01434-1.79293-2.09845-.81282-3.29022,1.12288-1.36533,2.58033-.59653,3.77595.13239,2.50932,1.53,4.93406,3.19878,7.44314,4.72918,11.14283,6.79677,13.22872,6.07607,18.02732-6.17772a10.62888,10.62888,0,0,0,.64487-2.2161c.65632-4.235-.08937-7.63267-4.84444-9.14928a54.66123,54.66123,0,0,1-8.49784-3.65476c-1.37968-.7165-3.65439-1.40073-3.02385-3.53719.68564-2.323,2.8175-1.73725,4.70966-1.49834,4.59948.58071,9.2191,1.001,13.82934,1.49761,3.20508.3452,5.39284-.74747,6.18688-4.10326a76.51113,76.51113,0,0,1,2.3997-8.94407c1.60571-4.3454-.57087-6.38169-4.1675-7.76789-2.59238-.99915-5.20768-1.93879-7.80734-2.91932-.9943-.375-2.40166-.5945-2.303-1.9115.12272-1.63851,1.73794-1.51378,2.90625-1.65688,2.60815-.31923,5.22829-.54731,7.84694-.77289,7.33511-.63176,8.98819-2.10821,10.65352-9.2655.66551-2.86,1.5121-5.68061,2.35821-8.49449.35924-1.19477.90686-2.43821,2.46847-2.33322,1.49259.10028,2.05313,1.31768,2.32089,2.54439.52677,2.4136.90586,4.85913,1.35753,7.2894.59112,3.18069,2.08425,3.16356,3.92884.98167,2.49755-2.9542,4.90649-5.98515,7.29836-9.02654C542.74934,502.27305,550.54577,489.28193,549.56075,473.05525ZM372.93068,451.08167c32.69508,1.92123,68.13518-2.91759,103.39788-8.71772,13.79423-2.2689,18.841-5.75945,21.82814-18.74308,3.91421-17.01287,2.47372-34.14085-.22963-51.19982-.70865-4.4717-3.33469-7.01218-7.57536-8.43239-9.72324-3.25627-19.87665-3.20446-29.85758-3.51727-28.77687-.902-57.59.49824-86.371-.98786-2.7715-.14308-5.69167-.40153-8.32339.26285-11.19728,2.82658-22.43645,1.53966-33.69357.90328-13.62026-.77-27.2614-1.46513-40.39284,3.42448-9.04894,3.36952-15.26118,9.76661-17.32449,19.13049a59.53383,59.53383,0,0,0-.73546,20.27265c1.12685,9.03749,2.94379,18.00268,3.29029,27.15831.20868,5.51446,3.22018,9.49639,8.29439,11.94632a57.61814,57.61814,0,0,0,15.96587,4.75189C323.88946,451.01922,346.76581,451.63045,372.93068,451.08167ZM531.10536,667.38091c0-3.09691-.07561-6.19638.02779-9.28983.06393-1.91167-.55609-4.57932,2.10174-5.00274,2.66765-.42513,3.54076,2.09828,4.22243,4.14183,1.22257,3.6656,2.16425,7.425,3.39238,11.08857,1.00271,2.99113,2.872,3.42034,5.26292,1.32625a13.55679,13.55679,0,0,0,4.26679-8.53953c2.97967-19.32742-.24821-14.081,15.514-26.19583a9.53749,9.53749,0,0,0,4.15255-8.28049q-.17357-13.92777.83125-27.83627c.24634-3.34455.91644-5.20075,4.66956-3.41574,3.32454,1.58121,5.23558.17487,6.34516-3.05188,1.99783-5.81,1.36216-11.55981-.11486-17.3461-1.59987-6.2674-3.77967-12.38607-3.53242-19.057.42189-11.38341,5.40047-21.49922,8.639-32.07781,2.7782-9.075,3.03185-17.75132-.47374-26.70089-1.59136-4.06276-5.67193-8.40169-.642-13.03166,3.38721-3.11791,2.3647-6.54482,1.27509-10.56972-1.51814-5.60742-5.7083-6.921-10.12613-8.11926-4.317-1.17092-8.78031-1.81479-13.192-2.62071-3.83815-.70113-5.31664,1.36275-5.71743,4.86744-.3899,3.40944-.21061,5.8818,4.14943,6.73041,5.25169,1.02211,10.74269,1.8942,14.99938,5.701,1.52013,1.35944,2.29562,3.11723,1.14219,4.96832-1.25864,2.01995-3.13055,1.03538-4.49741.15054-3.471-2.24684-7.25695-2.35274-11.17065-2.24775-4.13412.111-5.53989,2.37542-4.83735,6.09037.80363,4.2496,1.9549,8.43227,2.83969,12.66809.758,3.62867,2.79629,5.40784,6.53325,6.13614A27.0032,27.0032,0,0,1,580.91617,515.17c1.24542,1.209,2.49538,2.47911,2.38506,4.3348a33.42921,33.42921,0,0,1-3.732,14.22814c-.60181,1.10589-1.49068,2.13237-2.95295,1.74542-1.67781-.44407-1.9355-1.89284-1.82109-3.33679.14623-1.8444.61525-3.66945.68315-5.51255.20363-5.525-1.96414-7.6599-8.95706-9.04752-5.354-1.06239-7.17742-.08866-9.276,5.02123-.82245,2.0026-1.55325,4.0428-2.36084,6.05175-3.46521,8.61967-3.43117,8.76278,3.80383,14.21339,8.04123,6.058,10.82164,23.03942,5.14216,31.309-.54435.79262-1.08008,1.574-2.163,1.4233a2.01573,2.01573,0,0,1-1.70316-1.92925c-.16364-1.22268-.0958-2.47577-.24679-3.701-.96494-7.828-3.00327-15.16892-9.11434-20.77364-2.04457-1.87514-4.31688-2.897-6.696-1.334-4.58806,3.01427-8.60663,6.86864-10.4018,12.11851-1.42047,4.15408,2.71921,6.55,4.527,9.65575a32.08807,32.08807,0,0,0,2.11229,3.05323c3.00128,4.00389,3.59561,8.2527,2.23073,13.14154-1.78553,6.39536-3.05648,12.93723-4.453,19.43667-.40192,1.87055-.53278,3.9981-3.01926,3.91132-2.76544-.09648-2.97247-2.37735-2.82148-4.44262a36.74081,36.74081,0,0,1,2.774-11.22766c2.55029-6.2143,1.78966-11.63894-2.51422-16.84752-3.35222-4.05675-6.02994-4.79923-10.24128-1.71468a36.23007,36.23007,0,0,0-13.27988,18.50809c-1.226,3.77433-1.966,7.23239.62634,10.98381,5.64327,8.1663,7.12136,17.30209,5.184,27.01988-.277,1.38916-.34725,2.95682-2.07911,3.20883-1.886.27447-2.79649-1.0954-3.2721-2.65682a24.592,24.592,0,0,1-.66905-3.64058c-.82025-5.65725-1.2302-11.41853-3.60837-16.71644-1.0486-2.336-1.94519-5.00394-5.38632-4.9424-3.17941.057-15.3038,11.87836-15.23571,15.0953a11.90754,11.90754,0,0,0,.6964,2.68892c1.53992,5.70977,4.9796,10.22976,8.94928,14.44516,4.45263,4.72815,5.0404,8.76811,2.27715,14.73284-1.4372,3.10236-3.60817,3.39771-5.36139.48684a53.53427,53.53427,0,0,1-3.24581-7.17726,40.41692,40.41692,0,0,0-9.23325-13.77624c-2.51717-2.43181-4.74452-1.506-6.79882.70158-1.82222,1.95818-4.57827,3.51359-1.60021,6.83875a21.23084,21.23084,0,0,1,5.23634,10.73049c.36353,2.20072,1.42419,5.36474-1.18229,6.2362-2.72187.91-3.07363-2.62222-3.79592-4.33548a30.84292,30.84292,0,0,0-8.55172-11.39554c-1.1815-1.02552-2.46022-2.06374-4.15542-1.23624-1.6786.81945-1.688,2.464-1.65875,4.02986a40.24406,40.24406,0,0,0,.25494,4.63593c1.03575,7.65842,2.14646,15.30652,3.20105,22.9624a36.45591,36.45591,0,0,1-.61128,13.80211c-2.91606,12.00762-5.58156,24.07849-8.17014,36.162-1.04778,4.89118,1.01143,7.08163,6.07965,7.45531,6.59587.48638,8.02618-4.62685,10.14573-9.06664,1.95305-4.091,3.57825-4.34829,6.02883-.59353,1.80614,2.76748,3.39456,2.506,5.62361.68326,3.92354-3.2086,5.71184-7.50522,7.09893-12.21783.79029-2.68495.53315-7.08066,3.52587-7.45831,3.17859-.401,2.56708,4.2378,4.10527,6.39564,1.43915,2.019,2.31215,4.57274,5.36632,4.416,6.89133-.35365,13.31658-10.99186,10.56981-17.27594-2.17029-4.965-4.42564-9.96164-4.06509-15.56432.15142-2.35358-.28508-5.52384,2.90835-6.07772,2.9141-.50533,4.36877,2.142,5.33955,4.38142,1.408,3.24831,2.35891,6.69383,3.52618,10.0478.84143,2.41779.75328,6.002,3.74643,6.40653,3.3935.45859,5.28609-2.72323,7.04246-5.26944a19.45314,19.45314,0,0,0,1.46919-3.36509C531.64058,679.48457,531.00354,673.39443,531.10536,667.38091ZM274.05891,683.6517c-.00513,17.78353.10842,17.70146,7.2158,27.53837a8.82936,8.82936,0,0,0,7.73656,4.02152c3.86321.09751,8.08729.47152,10.06118,4.51982,2.33748,4.79429,6.32089,6.82525,11.07876,8.29841,2.60347.806,3.98242.20675,5.32172-2.00918.96068-1.58943,1.31213-4.42594,3.88556-3.97138,2.49258.44033,3.33909,2.87049,4.14436,5.13785,1.69034,4.75947,4.6009,7.62071,10.22721,7.65366,5.47925.03205,6.90627-1.07,4.3646-5.89542-8.41423-15.97458-11.13225-33.27746-12.64455-50.92129a196.81759,196.81759,0,0,0-2.92774-21.12662,50.6512,50.6512,0,0,0-6.40033-16.82506,5.014,5.014,0,0,0-5.04443-2.63158c-2.438.22252-3.3605,1.88235-3.98769,3.92539-1.12447,3.6631-.75569,7.33193-.21219,11.032.74168,5.04971,1.48405,10.10412,2.00551,15.17913.21778,2.11944.27042,4.70859-1.82783,5.88107-2.35152,1.31406-2.85251-1.62948-4.2154-2.62636-.82833-.60584-1.43947-1.91694-2.70687-1.1971-1.22872.6979-.58287,1.92983-.44288,2.95364.74642,5.45753-.47476,10.79987-1.00439,16.17441-.16,1.62376-.62064,3.69221-2.79116,3.71949-1.99565.02518-2.12159-1.97832-2.52009-3.40911-1.24466-4.469-2.06649-9.086-3.66225-13.42106-4.05678-11.02068-8.56155-21.876-12.6565-32.88325-2.41951-6.50364-4.96157-13.06854-2.91585-20.28885a80.29335,80.29335,0,0,0,1.75125-8.15428c1.25657-7.23483-1.59493-13.07546-8.05627-16.71082-3.91219-2.20112-5.84072-1.229-5.96562,3.21971-.126,4.48687.03568,8.981-.00322,13.47143-.01322,1.525.06572,3.39793-1.79147,3.8791-2.09015.54163-2.4456-1.56392-3.10218-2.81-3.555-6.74681-3.99111-14.20778-4.72419-21.58788-.57318-5.77046-1.95252-11.28846-5.29813-16.11718-1.41512-2.04241-3.34534-3.2951-5.98094-2.06238-2.67908,1.25314-1.91966,3.30582-1.49869,5.5467,1.28267,6.82786,3.65963,13.465,3.80643,20.48448.03833,1.83271.91318,4.59236-1.92187,4.97024-2.53658.33811-3.75086-1.99641-4.30428-4.11761-1.01386-3.88591-1.76584-7.843-2.54716-11.7863-2.69635-13.60807-3.98966-27.54325-10.17624-40.30356-2.889-5.95878-6.05118-8.82388-9.54988-7.61305-3.95822,1.36976-4.82337,5.19627-2.492,12.0315,1.54851,4.54,3.50545,8.95757,3.11986,13.92361-.12,1.54639.01308,3.31456-1.78984,3.92584-2.02087.68508-3.24483-.862-4.12976-2.26607-1.89512-3.00695-3.50539-6.19156-5.33163-9.24406-3.755-6.27624-3.94608-12.76876-1.79319-19.64353,2.49551-7.96891,5.02288-15.98752,4.21528-24.53884-.95159-10.07594-2.04363-10.9191-11.71032-9.22211-3.28432.57657-4.44992-.71724-3.262-3.83089,1.19451-3.131,3.1004-5.70648,6.38895-6.97709,4.741-1.83186,6.65536-5.351,5.87823-10.28427-.52849-3.35488-1.2494-6.68208-1.96878-10.00333-.5237-2.41785-1.95977-3.04419-4.05595-1.67424-2.71559,1.77469-5.363,3.65358-8.072,5.4387-1.1333.74679-2.3377,1.874-3.76526.762-1.47733-1.15075-1.12956-2.83815-.62246-4.28624a13.71119,13.71119,0,0,1,1.90362-3.13656c3.54186-5.053,8.90751-8.089,13.42758-12.06024,1.18738-1.04318,2.71512-1.98733,1.67228-3.78159-.95314-1.63989-2.42914-2.90492-4.55485-2.58756a9.17162,9.17162,0,0,0-2.575.99231c-10.75146,5.29539-19.55608,11.70357-20.48989,25.424-.90346,13.27421-3.35423,26.50872,1.64461,39.40907,2.56459,6.61828,6.01144,12.89049,8.70511,19.4643,2.70534,6.60228,5.01851,13.38061,3.28557,20.73252-.43743,1.85569-1.03382,3.88993-3.29243,3.91131-1.94022.01844-1.98493-2.01666-2.521-3.42862q-5.50993-14.51194-11.0784-29.00166c-.43259-1.12659-.75519-2.56492-2.35976-2.42079-.842.0756-1.11292,1.02744-1.14234,1.81348-.237,6.33081-1.14164,12.87574,3.89135,17.99613A27.35771,27.35771,0,0,1,179.086,564.5343c1.66557,8.32853,3.16264,16.691,4.85654,25.01355,1.47586,7.25116,5.45389,13.06655,10.9106,17.90622,2.02348,1.79465,3.96973,1.43873,5.47462-.82779.42463-.63953.636-1.4233,1.07457-2.05035,1.12082-1.60249,1.97244-4.04285,4.35335-3.545,2.72487.56982,2.48511,3.38908,2.52594,5.40427a40.5229,40.5229,0,0,1-1.9795,12.78975c-3.89631,12.61108-2.13586,15.98134,10.54035,20.26979.29309.09921.5958.16971.89038.26489,4.17222,1.34747,7.11414,3.66951,8.76822,8.10442,2.74567,7.36172,5.42215,14.85775,10.78327,20.92123,2.43789,2.75721,4.76382,5.03893,8.39506,1.39574,1.6692-1.67475,3.414-1.28842,4.13182,1.2579.37738,1.33862.632,2.71325,1.04041,4.04144,1.80727,5.87772,4.6049,11.16049,9.51282,15.064,2.76651,2.20032,4.87488,2.322,5.9188-1.83782a57.28939,57.28939,0,0,0,1.7141-11.44376,34.50057,34.50057,0,0,1,1.65293-9.56959c.43643-1.29068,1.003-2.9065,2.72555-2.70111,1.88384.22473,1.65243,1.98932,1.66472,3.32811C274.08743,673.43027,274.05948,678.54113,274.05891,683.6517ZM450.53479,348.587c-3.0639-1.3868-5.05376-2.08115-7.22462-2.19785-12.67019-.68139-25.31593-1.80294-38.021-1.84712-11.77036-.041-23.5236.5104-35.28355.74324-28.75722.56931-57.57692-.65155-86.1642,3.84422-16.14834,2.53957-32.61677,3.41724-47.89666,10.15176-10.1941,4.49308-20.56685,13.08944-13.817,28.002,2.70445,5.975,4.064,12.1789-.25839,18.53563-5.07878,7.46918-4.39517,6.22114,1.53954,12.02592,1.871,1.83,5.32863,3.28979,4.25736,6.54059-.96551,2.92979-4.26424,1.69426-6.59793,2.00694-1.66694.22342-3.09971.70725-3.427,2.5339-.285,1.59046.7508,2.6107,1.9871,3.37649a108.2989,108.2989,0,0,0,15.58419,8.23879c21.25228,8.77847,43.34832,14.51371,65.9721,18.46238a522.17519,522.17519,0,0,0,89.11523,7.7557,416.728,416.728,0,0,0,48.63056-2.59556c21.80594-2.522,43.14467-6.69845,63.11154-16.07416,10.987-5.15909,21.13308-11.72291,28.30129-21.947,2.32744-3.31963,1.83374-4.50127-1.92891-5.42809-2.2938-.565-5.52537-.03043-6.23722-3.01759-.77093-3.23489,2.15463-4.90291,4.268-6.5972a23.2835,23.2835,0,0,1,8.36608-3.88222c2.97462-.85135,5.94732-1.75106,8.83573-2.8527,4.58431-1.74846,8.53323-4.40672,11.04949-8.78269.74968-1.30377,1.91229-2.7246.44231-4.199-1.42631-1.43059-2.5052.25292-3.72016.65108a33.34583,33.34583,0,0,1-3.96549,1.291c-3.08058.593-4.48981-.74333-3.814-3.85817a60.73292,60.73292,0,0,1,1.83861-6.7113,48.59023,48.59023,0,0,0,2.23895-19.24078c-.33618-4.89495-2.92011-7.99362-7.6118-9.39066a113.02233,113.02233,0,0,0-16.758-3.44391c-22.31382-3.113-44.73255.05069-67.07078-1.84661,6.69442,1.22994,13.34576,2.25192,19.94957,3.679,13.21377,2.85548,25.8459,6.75724,34.73483,17.85806a18.09591,18.09591,0,0,0,8.03471,6.00526,51.72171,51.72171,0,0,1,6.76932,3.03481c2.0303,1.10217,4.166,2.33674,3.92291,5.20949-.27056,3.19652-2.95148,2.62533-4.9324,3.02953-11.51541,2.3497-14.55673,5.96584-14.90287,17.62281-.21132,7.11484-.3652,14.23836-.86075,21.33592-.53258,7.62831-3.37119,13.8598-10.49113,17.98195a95.60273,95.60273,0,0,1-20.44091,8.69489c-21.969,6.64181-44.61094,8.65609-67.37853,9.16337-15.1532.33763-30.31676.27136-45.49773-.60774-29.22191-1.69216-58.26407-4.53629-86.98876-10.29263a5.872,5.872,0,0,1-4.82206-3.74708,123.63412,123.63412,0,0,1-7.667-24.301c-1.33646-7.18284-3.99636-11.65377-11.25711-13.189-2.06687-.437-4.35625-1.51267-4.62424-4.02283-.2788-2.61138,1.89092-3.908,3.89784-4.61846,7.22211-2.55679,10.02935-8.08814,10.81647-15.16342a25.20142,25.20142,0,0,1,.76786-4.09892c5.917-20.79136,11.39985-26.79637,29.46132-28.77489,13.82386-1.51428,27.76409-1.64471,41.64771-2.73194,30.23633-2.36785,60.60024-2.72755,90.94244-2.9588C434.63485,347.887,441.84444,349.34373,450.53479,348.587ZM404.12421,691.05011c-1.11678,11.20378,1.13649,22.20069,1.91845,33.28632.22,3.11807,1.83538,4.63229,5.043,4.851a65.65077,65.65077,0,0,0,22.43375-2.63515c5.2503-1.48354,9.25529-4.18068,10.50534-10.37462,1.58351-7.84652,4.57172-15.40727,6.19542-23.24839,2.81926-13.6147,3.39518-27.29152-1.4465-40.6942-2.2364-6.19076-5.32662-7.96772-11.18259-6.38214-2.47111.66914-4.28125,2.44706-6.01147,4.21267-5.74919,5.86678-12.21242,10.36658-20.61778,11.51274-3.086.42081-4.47486,2.37928-5.36124,5.492C403.34013,675.0082,404.36669,683.05777,404.12421,691.05011ZM374.09374,705.192c-.31925-10.336.63644-20.72135-1.075-31.01339-1.509-9.075-1.47338-9.07287-10.16872-11.04751a21.94178,21.94178,0,0,1-2.63561-.88405q-11.51414-4.21417-23.02294-8.44282c-3.63446-1.33777-5.6676-.18344-5.98422,3.75584-.14827,1.84463-.43607,3.68353-.48462,5.52968a104.6938,104.6938,0,0,0,2.87258,28.0319c3.00905,12.14836,6.64054,24.07294,12.70223,35.16016,3.40843,6.23421,8.3654,9.27786,15.38049,9.05427,2.46513-.07856,4.923-.44435,7.38716-.48185,4.08167-.06211,5.16468-2.267,5.08178-6.00687C373.97213,720.96578,374.09374,713.07757,374.09374,705.192ZM648.395,465.97164c-17.70741-2.82474-22.50749-10.92465-28.31823-22.05029-1.3558-2.59585-2.422-5.34636-3.5631-8.05031-6.65872-15.77822-16.98445-27.18168-34.97717-29.58371-6.631-.88524-13.10314-1.31244-17.607,4.99234-1.13556,1.5896-2.47134,3.449-1.36556,5.55895,1.04321,1.99062,3.13129,1.66848,4.9741,1.63992a48.76229,48.76229,0,0,1,21.25838,3.97807c14.78429,6.721,24.369,17.65038,27.06089,33.99635.793,4.8152-.661,6.07815-5.28556,4.85221-1.79369-.47553-3.56032-1.05419-5.35759-1.51466-1.15257-.29534-2.47088-1.08232-3.44325.15777-.91661,1.16891-.09177,2.46743.43057,3.4873a75.29038,75.29038,0,0,0,4.406,7.60318c3.35488,5.00731,8.055,6.958,14.03495,5.82886a90.92916,90.92916,0,0,0,24.18417-7.6839C646.16821,468.51039,647.77229,468.09088,648.395,465.97164ZM530.59266,535.60712c-.06331-1.08326-1.35241-1.90271-2.75858-1.08519-3.35689,1.9516-7.25366,3.10094-8.6416,7.70817-2.44164,8.1051-5.039,16.13664-9.78643,23.40391-6.99736,10.71127-13.426,21.79536-20.0224,32.76545-.642,1.06771-2.00968,2.54938-.609,3.67308,1.10308.88491,2.20282-.59177,3.19-1.25518a25.84857,25.84857,0,0,0,2.189-1.7132c12.48746-10.50945,21.81964-23.44782,29.0893-37.94935C527.15564,553.34976,529.03152,544.91482,530.59266,535.60712ZM298.66,640.03823c-.18888-4.28006.58332-8.62364-1.21553-12.80143-1.59086-3.6947-4.34736-5.09923-8.12215-4.64087-2.70156.32808-7.021,5.56956-6.33508,8.236,2.38318,9.26465,5.16019,18.42766,10.79616,26.37751.60476.85309,1.35788,1.89228,2.60787,1.59562,1.63181-.38717,1.29591-1.89771,1.379-3.06106C298.14345,650.51439,299.1138,645.3184,298.66,640.03823ZM238.1896,543.7741c-2.77157.03852-2.28688,2.08292-2.3314,3.6559-.27968,9.878,9.08558,23.49025,19.03892,27.51614,1.85743.75121,4.14683,2.65126,5.905.47606,1.59606-1.97458-.93683-3.56509-1.6185-5.32566-.49858-1.28768-1.178-2.50713-1.80142-3.7445-2.70025-5.35934-5.12127-10.88108-9.16612-15.44793A27.60553,27.60553,0,0,0,238.1896,543.7741Zm328.37075-87.92462c.92682,0,1.86056.07237,2.7791-.01478,2.06374-.19571,4.75334.71752,5.78544-1.7744,1.07123-2.58657.07612-5.18079-1.61519-7.35389a9.956,9.956,0,0,0-2.39386-2.15977c-5.04239-3.29065-10.0605-6.62692-15.21883-9.72812a27.64028,27.64028,0,0,0-9.44565-3.67573c-1.36057-.23749-3.05749-.30189-3.45063,1.44872-.415,1.84857,1.173,2.24351,2.5748,2.54737a25.95447,25.95447,0,0,0,3.633.70782c4.42974.30828,5.92258,2.27256,5.60546,6.95959C554.20825,451.7596,558.27113,455.86422,566.56035,455.84948ZM211.3701,380.2312c-.278-1.192-.488-2.4117-.85444-3.58242-.45438-1.45155-.73715-3.25667-2.46242-3.63778-1.63582-.36131-2.22093,1.36244-3.151,2.33a29.76355,29.76355,0,0,0-6.66108,9.93614c-1.05032,2.74323-2.9525,6.30532-.60522,8.19342,2.60218,2.09321,4.86643-1.64783,6.85689-3.20729C207.71317,387.74025,210.92012,384.892,211.3701,380.2312Z" transform="translate(-117.5864 -48)"/>
    <path d="M345.49991,279.26143c-.732-2.08637-1.92245-5.111-2.83021-8.21815-.47133-1.61326-2.28569-3.64467-.05207-4.9824,1.88055-1.12629,3.44265.70977,4.90124,1.771,4.79934,3.49183,8.313,8.25572,12.3931,12.46644,5.53711,5.71431,9.44933,11.13506,3.94583,19.1605-1.71749,2.50454-.876,6.01348-.29251,9.09619a134.36129,134.36129,0,0,1,2.33813,18.38645c.08448,1.71785.00241,3.60791-1.85629,4.40606-2.01538.86551-3.09036-.83808-4.22-2.06921-12.01383-13.09307-20.88419-28.35107-29.88441-43.51324-2.13038-3.589-4.03783-7.30984-6.07315-10.95593-.85127-1.52495-1.8438-3.1683-.23721-4.61871,1.55651-1.40516,3.41654-.51015,4.676.52864,4.40932,3.637,8.63323,7.498,12.9659,11.22944.9161.789,1.96124,1.78118,3.28925,1.19C345.69418,282.63523,345.76664,281.44548,345.49991,279.26143Z" transform="translate(-117.5864 -48)"/>
    <path d="M385.33521,631.4957c-16.32762-.96579-32.7446-1.20544-48.59134-6.1442a42.10872,42.10872,0,0,1-8.90569-3.8538c-6.18268-3.6428-8.1401-13.45685-4.38859-21.67131,3.11078-6.81141,7.42272-10.91138,16.022-10.44871a348.10213,348.10213,0,0,0,62.92152-2.67,127.46557,127.46557,0,0,0,28.69474-7.19836c10.95826-4.11387,24.73754,3.09351,27.68465,14.33688,2.12744,8.11644-1.67735,14.68242-7.33519,19.79923-11.20267,10.13135-24.42036,16.08434-39.68241,17.05972C402.95629,631.2674,394.16478,631.96257,385.33521,631.4957Zm-36.49392-33.37316c-5.45124.1924-10.57689-.4515-15.60754.872-1.52767.40187-3.12324.63063-3.35052,2.60917a3.93273,3.93273,0,0,0,2.03391,3.88307c.90186.5975,1.84579,1.1325,2.73781,1.74372,3.82181,2.61921,3.77836,3.03339-.30987,5.49384-1.42333.8566-3.34765,1.48427-3.36007,3.49424-.01441,2.3301,2.08609,2.93674,3.79331,3.51211,8.52418,2.87293,17.33342,4.25528,26.269,5.1897,13.63762,1.42619,27.22376.4625,40.68271-1.2583,14.53268-1.858,29.00611-4.56537,42.41316-10.99777,1.99727-.95813,4.68179-1.58563,4.8481-4.42458.14231-2.42931-2.0332-3.2723-3.775-4.22317-3.28668-1.79443-3.21317-4.264-1.39965-6.97777a45.29234,45.29234,0,0,1,3.2681-3.90332c1.57585-1.86187,1.28289-3.71029-.85918-4.50683-4.94044-1.83708-10.18827-3.10638-15.344-1.51655a110.87279,110.87279,0,0,1-19.77583,4.63451q-16.10191,1.88268-32.20371,3.76622C368.78556,596.68,358.75307,598.82248,348.84129,598.12254Z" transform="translate(-117.5864 -48)"/>
    <path d="M229.01044,489.88522c-.52143-5.72276-3.04347-10.64473-6.07516-15.34169-1.92454-2.98166-4.14867-5.77713-5.96382-8.81991-1.44684-2.42547-1.77074-5.19789.86116-7.05539,2.40043-1.6942,4.38918.03681,6.11378,1.64559,7.65685,7.14266,10.93619,16.34909,11.782,26.44573.69719,8.32285,1.966,16.54548,3.33921,24.75971.35211,2.10634.67751,4.01529-1.17961,5.48856-2.11741,1.6798-3.88069.14821-5.41291-.99806-7.32041-5.47688-14.41058-11.25176-18.83-19.4939-2.48427-4.63321-1.5495-8.01526,2.36861-10.38036,3.03149-1.82982,4.7033-1.09409,4.86446,2.41762a22.69066,22.69066,0,0,0,1.66872,8.56863c.61873,1.35847,1.54938,2.36737,3.19511,2.15058,1.67875-.221,2.21924-1.48042,2.41907-2.95851C228.45029,494.17441,228.72724,492.0333,229.01044,489.88522Z" transform="translate(-117.5864 -48)"/>
    <path d="M542.54192,481.816c-.12587,14.14437-6.21822,22.75991-16.83607,25.732-1.3395.37493-2.80721,1.12093-3.85842-.227-1.24194-1.59245-.05117-3.08036,1.00362-4.08165,2.70123-2.56419,2.36484-5.09554,1.12642-8.33948-4.47719-11.72754-.66984-22.80786,3.35991-33.74785a101.48722,101.48722,0,0,1,4.57415-9.62021c1.05105-2.12962,2.71269-3.41812,5.19514-3.03418a3.71341,3.71341,0,0,1,3.27361,3.43052c.31525,2.38206-.54617,4.02893-2.82642,5.24287-5.3746,2.86127-5.33467,3.65593-1.52993,8.57166A32.41688,32.41688,0,0,1,542.54192,481.816Zm-4.87427-.36488c-1.023-2.37843.15672-6.44034-4.03145-6.58243-3.29448-.1118-4.51432,2.94921-5.13173,5.64182-.45332,1.97656,3.96758,7.75224,5.32815,7.353C536.90753,486.96108,536.9605,484.06751,537.66765,481.45108Z" transform="translate(-117.5864 -48)"/>
    <path d="M378.403,577.75673a16.25939,16.25939,0,0,1-10.81194-4.59725,3.77183,3.77183,0,0,1-1.01282-4.62617c.93332-2.06629,2.8541-1.89721,4.37354-1.15478,5.27662,2.57859,10.41657,1.79947,15.71721.09761,2.00708-.64441,4.78409-1.99045,6.0174,1.12342,1.18261,2.98586-1.15975,4.46072-3.34544,5.75623A29.1487,29.1487,0,0,1,378.403,577.75673Z" transform="translate(-117.5864 -48)"/>
    <path d="M449.86142,521.27115c-2.85-.10363-6.1103-.09926-9.09332-1.69193-1.71267-.91441-2.672-2.17866-1.851-4.13162.77608-1.846,2.2837-1.61236,3.92294-1.282,5.17115,1.042,10.10106,4.21766,15.7063,1.6364a32.24852,32.24852,0,0,0,4.75918-2.78852c1.055-.72286,2.45214-2.10067,3.62743-.58315,1.21335,1.56675-.106,2.916-1.30192,3.92288C461.19109,520.0918,456.16115,522.08963,449.86142,521.27115Z" transform="translate(-117.5864 -48)"/>
    <path d="M372.39344,549.20986c.20825,4.655-.128,8.01213-1.47018,11.18914-.56191,1.33011-1.49823,2.44087-3.13965,2.20231a2.82026,2.82026,0,0,1-2.40881-2.97446,38.2181,38.2181,0,0,1,2.419-14.91515c.4403-1.13776,1.1205-2.351,2.64519-2.11983,1.50262.22779,1.84786,1.535,1.92764,2.78092C372.4745,547.05763,372.39344,548.75461,372.39344,549.20986Z" transform="translate(-117.5864 -48)"/>
    <path d="M310.57538,522.92587a38.45908,38.45908,0,0,1-17.15428-5.93756c-1.20149-.73959-2.54836-1.60487-1.67338-3.28148.85632-1.64078,2.31788-1.16364,3.6365-.55457a61.56225,61.56225,0,0,0,15.77754,5.07138c1.577.26143,3.90136.50357,3.64107,2.74473C314.5003,523.57232,312.01121,522.70347,310.57538,522.92587Z" transform="translate(-117.5864 -48)"/>
    <path d="M370.9506,436.56326c-6.51212,1.21465-12.9741.25927-19.464.03468-3.26095-.11281-4.11857-1.60963-2.53622-4.53638,1.76374-3.26234,3.3439-6.62553,5.1539-9.86093a83.184,83.184,0,0,0,8.59543-21.91578,29.191,29.191,0,0,1,33.60789-22.31141c4.42025.72189,8.94928.9114,13.21621,2.35645,6.1324,2.07685,10.77446.2844,14.54638-4.81012,1.02563-1.38524,2.11533-4.35371,4.54594-2.27774,2.04046,1.74275.16038,3.63576-1.073,5.21527-1.23751,1.5847-2.45773,3.18563-3.75766,4.71832-3.09252,3.6462-6.48773,4.82739-11.45732,3.13554-9.556-3.2533-19.33267-5.36786-29.48331-1.78955-3.9342,1.38694-7.33051,3.23815-9.93889,6.44845-7.391,9.09647-8.88927,23.13049-3.31543,30.68837,6.80386,9.22591,20.11465,12.338,31.91769,7.4626,12.20984-5.04356,16.02339-18.07647,8.12975-28.06886-4.267-5.40137-9.91564-7.01225-16.5745-5.621-6.00767,1.25521-9.945,4.71619-11.64583,10.62962a10.09311,10.09311,0,0,0,4.761,11.08032c4.54582,2.63189,10.53032,2.36022,13.41819-.58868,1.65688-1.6919,1.27915-3.6688.87212-5.67-.45612-2.24269-.00176-4.24622,2.49938-4.64906,2.57772-.41517,2.80483,1.7836,3.18271,3.63934,1.68643,8.28236-4.15513,15.09788-13.06434,15.21608-8.86843.11764-16.73295-5.5845-18.04323-13.08226A18.58984,18.58984,0,0,1,387.29,391.446c10.97493-3.88812,21.09451-1.66584,26.53636,5.82741a25.53147,25.53147,0,0,1-.01285,30.33072c-4.81564,6.3297-11.90493,8.30487-19.22217,8.83173C386.74867,437.00047,378.8339,436.56326,370.9506,436.56326Zm-7.74143-4.72867c1.05092,0,2.134.03784,3.21327-.01032,1.14872-.05122,2.66578.92657,3.33622-.57606.61336-1.37469-.8602-2.131-1.59465-3.05948-1.43567-1.815-2.93362-3.58349-4.30539-5.44522-.94866-1.28749-2.16382-2.33093-3.30809-.754-1.86266,2.56714-4.947,5.26551-4.07869,8.41078C357.2108,433.0769,360.87688,431.215,363.20917,431.83459Z" transform="translate(-117.5864 -48)"/>
    <path d="M489.621,409.05719c-3.38325-.03187-6.8305-3.14512-6.65438-6.44156.16872-3.15737,1.55631-5.79766,5.19784-6.00077,3.66344-.2044,7.95258,3.796,7.90692,7.10624C496.03114,406.63248,493.06094,409.08961,489.621,409.05719Z" transform="translate(-117.5864 -48)"/>
    <path d="M482.18405,368.86534c3.68814-.0973,8.11837,3.59708,8.12022,6.33186.00187,2.77363-3.23767,6.29576-5.78462,6.28926-2.77888-.00709-7.46089-3.91463-7.05454-6.33154C477.95665,372.23128,479.57519,369.80859,482.18405,368.86534Z" transform="translate(-117.5864 -48)"/>
    <path d="M473.65646,429.06124c.52966-2.89393,1.63762-5.09871,5.05989-4.92412,3.45944.17648,7.14858,3.38327,7.12459,6.18929-.02065,2.41379-4.31109,5.90151-7.0637,5.5058C474.91473,435.27694,474.20325,432.18167,473.65646,429.06124Z" transform="translate(-117.5864 -48)"/>
    <path d="M291.47611,406.75488c-.13429,4.23216-2.9067,6.78626-6.67016,6.57077-3.30328-.18913-4.8085-2.14088-4.40477-5.21028.41006-3.11748.51236-6.81669,5.411-6.3499C289.20179,402.0885,291.27852,403.60823,291.47611,406.75488Z" transform="translate(-117.5864 -48)"/>
    <path d="M294.69758,441.22165c-4.388.1671-6.09458-1.57024-6.21319-4.90873-.12652-3.56137,1.48226-5.9672,5.08643-6.4854,2.74309-.39444,6.36008,3.3276,6.11028,6.27877A5.2057,5.2057,0,0,1,294.69758,441.22165Z" transform="translate(-117.5864 -48)"/>
    <path d="M293.86662,371.17973c2.30276.73783,6.02877.32964,5.70248,4.29126-.23014,2.79468-1.21079,6.1298-5.02756,6.13637-4.24988.00735-4.46851-3.741-4.93893-6.61523C289.16657,372.328,291.12362,371.22131,293.86662,371.17973Z" transform="translate(-117.5864 -48)"/>
  </g>
</svg>
